:SAMPLES-PER-SECOND 30
:FULLY-SPECIFIED
:DEGREES
47
root  -50.1265 19.075 -1.03138 68.3145 85.1175 82.2888
RightUpLeg  -25.5585 1.54394 -8.13308
RightLeg  133.873 12.801 -0.653558
RightFoot  -37.8067 2.64093 12.0266
RightToes  -2.32832e-010 -1.59028e-015 9.93923e-017
Spine  62.0467 -1.24944 -0.265939
Spine1  12.5409 -0.920725 -7.41262
HEad  -32.6131 0.724949 6.51812
LeftShoulder1  9.93923e-017 0 1.22299e-017
LeftArm  -4.16834 -50.8936 -79.7994
LeftForeArm  -128.249 -50.7817 166.281
LeftHand  0.212001 4.22823 14.3332
RightShoulder  1.98785e-016 -4.96962e-017 1.55301e-017
RightArm  -28.0429 39.0725 75.3427
RightForeArm  54.2882 42.4003 -163.206
RightHand  1.01371 -19.7246 6.91116
LeftUpLeg  -82.5521 -8.9499 -4.52758
LeftLeg  94.922 -14.8066 10.9513
LeftFoot  -1.66695 0.199795 -1.99218
LeftToes  1.49248e-009 -4.82331e-011 8.60243e-011
48
root  -49.2144 20.4606 -1.18533 70.3965 84.9723 82.8312
RightUpLeg  -23.5346 1.19377 -8.49185
RightLeg  127.754 13.1684 -1.55463
RightFoot  -36.8775 2.5539 12.0981
RightToes  -2.32832e-010 -1.59028e-015 9.93923e-017
Spine  61.7657 -0.654025 -0.830376
Spine1  12.5283 -0.712552 -6.64301
HEad  -32.9364 0.75013 6.40537
LeftShoulder1  9.93923e-017 0 1.22299e-017
LeftArm  -3.50214 -46.6548 -81.0859
LeftForeArm  -127.861 -51.1395 165.951
LeftHand  0.0488664 3.76127 15.4786
RightShoulder  1.98785e-016 -4.96962e-017 1.55301e-017
RightArm  -28.2035 37.6346 75.4393
RightForeArm  53.0765 42.4534 -163.046
RightHand  1.0091 -20.1626 7.06485
LeftUpLeg  -78.7525 -8.56622 -5.66972
LeftLeg  93.3757 -14.4384 10.8484
LeftFoot  -4.73614 0.136493 -1.98424
LeftToes  1.49248e-009 -4.82331e-011 8.60243e-011
49
root  -48.3055 21.955 -1.3131 72.2902 84.8324 83.3036
RightUpLeg  -21.5344 1.60742 -8.98634
RightLeg  121.537 12.059 -0.575802
RightFoot  -35.5497 2.44719 12.2959
RightToes  -2.32832e-010 -1.59028e-015 9.93923e-017
Spine  60.8907 -0.254886 -1.46459
Spine1  13.5854 -0.480723 -6.3298
HEad  -34.1414 1.16656 6.83892
LeftShoulder1  9.93923e-017 0 1.22299e-017
LeftArm  -2.66232 -41.5621 -81.5422
LeftForeArm  -126.838 -52.5318 164.651
LeftHand  -0.0486238 3.57619 16.8215
RightShoulder  1.98785e-016 -4.96962e-017 1.55301e-017
RightArm  -27.7154 35.836 75.7033
RightForeArm  53.5183 42.8631 -162.622
RightHand  0.83656 -20.1346 8.46232
LeftUpLeg  -74.5264 -7.89312 -6.79344
LeftLeg  91.0897 -13.9003 10.6219
LeftFoot  -7.3576 0.0325787 -1.02482
LeftToes  1.49248e-009 -4.82331e-011 8.60243e-011
50
root  -47.3675 23.539 -1.40257 66.9622 84.4043 76.8071
RightUpLeg  -19.3095 3.52061 -9.25521
RightLeg  115.022 10.6701 1.65409
RightFoot  -33.682 2.30068 12.6315
RightToes  -2.32832e-010 -1.59028e-015 9.93923e-017
Spine  60.3517 0.646288 -2.55296
Spine1  13.9406 0.000760318 -6.14435
HEad  -35.0866 1.34825 7.35855
LeftShoulder1  9.93923e-017 0 1.22299e-017
LeftArm  -1.95285 -34.8602 -81.3553
LeftForeArm  -125.072 -54.9409 162.174
LeftHand  0.000454002 3.7282 16.6893
RightShoulder  1.98785e-016 -4.96962e-017 1.55301e-017
RightArm  -26.7777 32.7367 76.2882
RightForeArm  53.4294 43.5331 -161.84
RightHand  0.762125 -19.5096 8.99948
LeftUpLeg  -69.7001 -6.6114 -7.71815
LeftLeg  88.0101 -13.2249 10.6397
LeftFoot  -9.78221 -0.0312682 0.0839446
LeftToes  1.49248e-009 -4.82331e-011 8.60243e-011
